<svg xmlns="http://www.w3.org/2000/svg" viewBox="0 0 122.88 84.81" xmlns:v="https://vecta.io/nano" fill="#28A745"><path d="M118.29 10.9c2.31 2.31 3.9 5.34 4.41 8.72.19 1.3.18 2.42.18 3.7v21.09l-.07 3.41c-.44 4.72-3.08 9.07-7.06 11.64-5.04 3.27-10.8 2.52-16.83 2.52 1.99 5.48 6 10.54 10.33 14.37l-1.62 3.04-.05-.02c-10.49-2.7-21.55-8.9-28.29-17.4-4.17-.04-7.58.01-11.74-.55-4.58 2.78-10.03 4.59-15.41 4.59-3.49 4.35-7.55 8.07-12.19 11.12-5.01 3.29-10.67 5.79-16.98 7.45-.31.08-.62.16-.94.2-1.09.12-2.23-.27-3.01-1.15-1.28-1.44-1.14-3.65.3-4.93 4.08-3.61 6.36-7.57 7.99-12.67-7.96 0-14.62.84-21.1-5.63C-1.88 52.3.13 33.47.54 22.17c.13-3.63-.12-6.02 1.33-9.81A19.13 19.13 0 0 1 12.58 1.45C17.19-.41 22.2.05 27.06.05h29.55c2.17 0 3.94-.01 6.16.51 3.74.86 7.13 2.85 9.78 5.74l34.12.01c4.51 0 8.38 1.34 11.62 4.59h0zM99.93 42.79h-8.97l-1.24 4.46h-8.04l8.08-22.82c.97-2.75 2.07-7.3 5.6-7.3 3.66 0 4.87 4.17 5.89 7.05l8.18 23.06h-8.24l-1.26-4.45h0zm-1.65-5.85l-2.82-9.72-2.8 9.72h5.62 0zM83.15 71.66l-5.83-4.82-7.28 8.99-10.57-9.17-4.99 5.64 11.45 9.11 9.28-.8 7.94-8.95h0zm-6.5-61.8c3.42 13.31 7.07 36.69-2.11 48.53l6.48.03c4.92 6.54 11.24 11.11 18.68 14.45.7.31 1.41.62 2.12.9-2.53-3.06-4.75-6.59-6.16-10.33-.65-1.73-1-3.25-1.44-5.02 2.04 0 4.04.02 6.09.09 4.53.16 9.3.29 13.07-1.82 1.63-.91 2.94-2.2 3.97-3.75.91-1.39 1.55-2.98 1.83-4.67.21-1.28.14-2.69.14-3.99V22.63c0-.57.01-1.09-.03-1.66a12.05 12.05 0 0 0-3.51-7.57c-1.92-1.93-4.49-3.21-7.33-3.49-.73-.07-1.45-.06-2.18-.06l-29.62.01h0zm-55.44 3.63h13.44V9.7h6v3.79h13.49v6.22h-2.77c-.22 1.75-.63 3.49-1.19 5.21h.01c-.57 1.75-1.35 3.51-2.28 5.25-1.58 2.95-3.62 5.78-5.98 8.5 3.78 4.52 8.46 8.45 14.05 12.03l-3.09 4.81c-5.86-3.76-10.84-7.9-14.93-12.67-3.66 3.54-7.81 6.84-12.17 9.85l-3.25-4.7c4.31-2.98 8.4-6.24 11.92-9.71-3.25-4.75-5.73-10.08-7.45-16.21l5.51-1.54c1.41 5.03 3.39 9.45 5.93 13.41 1.73-2.1 3.23-4.25 4.42-6.46.75-1.4 1.39-2.86 1.88-4.35h.01 0c.37-1.11.65-2.26.84-3.42H21.21v-6.22h0z" fill-rule="evenodd"/></svg>