 <svg xmlns="http://www.w3.org/2000/svg" fill="#28A745" width="800" height="800" viewBox="0 0 95.469 95.469" xmlns:v="https://vecta.io/nano"><path d="M71.875 66.208h5.486v14.061h-5.486z"/><circle cx="74.619" cy="61.311" r="3.217"/><path d="M74.457 48.639c-6.041 0-11.475 2.579-15.311 6.672l-1.068-.492-4.947-4.17-8.502 8.455-8.523-8.455-4.947 4.17-10.299 4.742c-1.523.625-2.875 1.707-3.781 3.228L0 87.296l63.133.028a20.87 20.87 0 0 0 11.324 3.339c11.586 0 21.012-9.427 21.012-21.013a21.04 21.04 0 0 0-21.012-21.011zm0 35.799c-8.154 0-14.787-6.634-14.787-14.787s6.633-14.785 14.787-14.785 14.785 6.633 14.785 14.785-6.633 14.787-14.785 14.787zM44.562 51.667v.003c.008 0 .02-.002.029-.002.004 0 .012.002.02.002.02 0 .028-.002.034-.002s.02.002.029.002v-.003c12.004.183 19.301-10.324 19.49-27.646.121-12.017-7.332-18.888-19.469-19.211v-.005c-.02 0-.033.001-.051.001v-.001c-.012 0-.02 0-.027.001s-.018-.001-.025-.001v.001c-.02 0-.033-.001-.049-.001v.005c-12.139.324-19.592 7.195-19.471 19.212.187 17.321 7.484 27.828 19.49 27.645z"/></svg>