<svg version="1.1" xmlns="http://www.w3.org/2000/svg" xmlns:xlink="http://www.w3.org/1999/xlink" x="0px" y="0px" viewBox="0 0 256 256" enable-background="new 0 0 256 256" xml:space="preserve">
<metadata> Svg Vector Icons : http://www.onlinewebfonts.com/icon </metadata>
<g><g><path fill="#000000" d="M153.6,161.7v4.8c0,5.7-4.6,10.3-10.3,10.3h-30.5c-5.7,0-10.3-4.6-10.3-10.3v-4.8c-29.3-3.9-52.2-14.4-69.5-21.9L20.3,135v84c0,5.6,3.9,11.5,9.8,11.5H225c6,0,10.7-6.2,10.7-11.5v-85.7l-12.7,6.4C205.8,147.3,182.8,157.7,153.6,161.7z"/><path fill="#000000" d="M102.5,148.9v-8c0-5.7,4.6-10.3,10.3-10.3h30.5c5.7,0,10.3,4.6,10.3,10.3v8c38.2-5.5,69.7-22.7,79.8-27.7l12.7-7v-11.8V85.7c0-11.2-8.3-19.3-19.7-19.3h-54.7V51.1c0-14.2-15.1-25.7-33.8-25.7h-20.5c-18.4,0-32.9,11.3-32.9,25.7v15.4H31.3C19.4,66.5,10,74.9,10,85.7v16.6v12.8l10.3,5.7C30.3,126,64.3,143.4,102.5,148.9z M97.1,51.1c0-8.5,7.7-13,20.2-13h20.5c12.5,0,21.1,4.8,21.1,13v15.4H97.1V51.1L97.1,51.1z"/><path fill="#000000" d="M115.2,140.8h25.6v25.6h-25.6V140.8L115.2,140.8z"/></g></g>
</svg>