<svg width="24" height="24" viewBox="0 0 12 12" fill="none" xmlns="http://www.w3.org/2000/svg">
<path d="M7.7511 6.33671L11.3982 8.64233V3.93372L7.7511 6.33671Z" fill="#222222"/>
<path d="M0.580017 3.93372V8.64233L4.2271 6.33671L0.580017 3.93372Z" fill="#222222"/>
<path d="M10.722 2.5625H1.25613C0.918741 2.5625 0.650991 2.81402 0.600281 3.13789L5.98909 6.68829L11.3779 3.13789C11.3272 2.81402 11.0594 2.5625 10.722 2.5625Z" fill="#222222"/>
<path d="M7.13176 6.74509L6.17503 7.37525C6.11823 7.41244 6.054 7.43069 5.98909 7.43069C5.92418 7.43069 5.85995 7.41244 5.80315 7.37525L4.84642 6.74442L0.601624 9.42935C0.653686 9.75052 0.920084 10 1.25612 10H10.7221C11.0581 10 11.3245 9.75052 11.3766 9.42935L7.13176 6.74509Z" fill="#222222"/>
</svg>
