<svg width="24" height="24" viewBox="0 0 12 12" fill="none" xmlns="http://www.w3.org/2000/svg">
<path fill-rule="evenodd" clip-rule="evenodd" d="M6 0.375C2.82312 0.375 0.25 2.94812 0.25 6.125C0.25 8.66937 1.89594 10.8184 4.18156 11.5803C4.46906 11.6306 4.57688 11.4581 4.57688 11.3072C4.57688 11.1706 4.56969 10.7178 4.56969 10.2362C3.125 10.5022 2.75125 9.88406 2.63625 9.56062C2.57156 9.39531 2.29125 8.885 2.04688 8.74844C1.84563 8.64062 1.55813 8.37469 2.03969 8.3675C2.4925 8.36031 2.81594 8.78437 2.92375 8.95687C3.44125 9.82656 4.26781 9.58219 4.59844 9.43125C4.64875 9.0575 4.79969 8.80594 4.965 8.66219C3.68563 8.51844 2.34875 8.0225 2.34875 5.82312C2.34875 5.19781 2.57156 4.68031 2.93812 4.27781C2.88063 4.13406 2.67937 3.54469 2.99563 2.75406C2.99563 2.75406 3.47719 2.60313 4.57688 3.34344C5.03688 3.21406 5.52563 3.14937 6.01438 3.14937C6.50313 3.14937 6.99188 3.21406 7.45188 3.34344C8.55156 2.59594 9.03312 2.75406 9.03312 2.75406C9.34937 3.54469 9.14812 4.13406 9.09062 4.27781C9.45719 4.68031 9.68 5.19062 9.68 5.82312C9.68 8.02969 8.33594 8.51844 7.05656 8.66219C7.265 8.84187 7.44469 9.18687 7.44469 9.72594C7.44469 10.495 7.4375 11.1131 7.4375 11.3072C7.4375 11.4581 7.54531 11.6378 7.83281 11.5803C10.1041 10.8184 11.75 8.66219 11.75 6.125C11.75 2.94812 9.17688 0.375 6 0.375Z" fill="#222222"/>
</svg>
